<svg width="23" height="23" viewBox="0 0 23 23" fill="none" xmlns="http://www.w3.org/2000/svg">
<path d="M14.9998 7H15.0091" stroke="white" stroke-linecap="round" stroke-linejoin="round"/>
<path d="M17 3H7C5.34315 3 4 4.34315 4 6V16C4 17.6569 5.34315 19 7 19H17C18.6569 19 20 17.6569 20 16V6C20 4.34315 18.6569 3 17 3Z" stroke="white" stroke-linecap="round" stroke-linejoin="round"/>
<path d="M4 14.0001L8 10.0001C8.45606 9.56123 8.97339 9.3302 9.5 9.3302C10.0266 9.3302 10.5439 9.56123 11 10.0001L16 15.0001" stroke="white" stroke-linecap="round" stroke-linejoin="round"/>
<path d="M14.0002 13L15.0002 12C15.4562 11.5611 15.9736 11.3301 16.5002 11.3301C17.0268 11.3301 17.5441 11.5611 18.0002 12L20.0002 14" stroke="white" stroke-linecap="round" stroke-linejoin="round"/>
</svg>
