<svg width="21" height="20" viewBox="0 0 21 20" fill="none" xmlns="http://www.w3.org/2000/svg">
<path d="M8.03341 17.95C8.83342 18.1916 9.64175 18.3333 10.5001 18.3333C12.7102 18.3333 14.8298 17.4553 16.3926 15.8925C17.9554 14.3297 18.8334 12.2101 18.8334 9.99996C18.8334 8.90561 18.6179 7.82198 18.1991 6.81093C17.7803 5.79988 17.1665 4.88122 16.3926 4.1074C15.6188 3.33358 14.7002 2.71975 13.6891 2.30096C12.6781 1.88217 11.5944 1.66663 10.5001 1.66663C9.40573 1.66663 8.3221 1.88217 7.31105 2.30096C6.30001 2.71975 5.38135 3.33358 4.60752 4.1074C3.04472 5.67021 2.16675 7.78982 2.16675 9.99996C2.16675 13.5416 4.39175 16.5833 7.53341 17.7833C7.45841 17.1333 7.38341 16.0583 7.53341 15.3166L8.49175 11.2C8.49175 11.2 8.25008 10.7166 8.25008 9.94996C8.25008 8.79996 8.96675 7.94163 9.78342 7.94163C10.5001 7.94163 10.8334 8.46663 10.8334 9.14163C10.8334 9.85829 10.3584 10.8833 10.1167 11.8666C9.97508 12.6833 10.5501 13.4 11.3834 13.4C12.8667 13.4 14.0167 11.8166 14.0167 9.58329C14.0167 7.58329 12.5834 6.21663 10.5251 6.21663C8.17508 6.21663 6.79175 7.96663 6.79175 9.80829C6.79175 10.525 7.02508 11.25 7.40841 11.725C7.48342 11.775 7.48342 11.8416 7.45842 11.9666L7.21675 12.875C7.21675 13.0166 7.12508 13.0666 6.98342 12.9666C5.91675 12.5 5.30008 10.9833 5.30008 9.75829C5.30008 7.12496 7.16675 4.73329 10.7667 4.73329C13.6334 4.73329 15.8667 6.79163 15.8667 9.52496C15.8667 12.3916 14.0917 14.6916 11.5501 14.6916C10.7417 14.6916 9.95008 14.2583 9.66675 13.75L9.10842 15.725C8.91675 16.4416 8.39175 17.4 8.03341 17.975V17.95Z" fill="#121416"/>
</svg>
