<svg width="21" height="20" viewBox="0 0 21 20" fill="none" xmlns="http://www.w3.org/2000/svg">
<path d="M19.2168 5.00004C18.5751 5.29171 17.8834 5.48337 17.1668 5.57504C17.9001 5.13337 18.4668 4.43337 18.7334 3.59171C18.0418 4.00837 17.2751 4.30004 16.4668 4.46671C15.8084 3.75004 14.8834 3.33337 13.8334 3.33337C11.8751 3.33337 10.2751 4.93337 10.2751 6.90837C10.2751 7.19171 10.3084 7.46671 10.3668 7.72504C7.40011 7.57504 4.75845 6.15004 3.00011 3.99171C2.69178 4.51671 2.51678 5.13337 2.51678 5.78337C2.51678 7.02504 3.14178 8.12504 4.10845 8.75004C3.51678 8.75004 2.96678 8.58337 2.48345 8.33337V8.35837C2.48345 10.0917 3.71678 11.5417 5.35011 11.8667C4.82572 12.0102 4.27519 12.0302 3.74178 11.925C3.96812 12.6354 4.41139 13.257 5.00929 13.7025C5.60719 14.1479 6.32965 14.3948 7.07511 14.4084C5.81147 15.4087 4.24511 15.9495 2.63345 15.9417C2.35011 15.9417 2.06678 15.925 1.78345 15.8917C3.36678 16.9084 5.25011 17.5 7.26678 17.5C13.8334 17.5 17.4418 12.05 17.4418 7.32504C17.4418 7.16671 17.4418 7.01671 17.4334 6.85837C18.1334 6.35837 18.7334 5.72504 19.2168 5.00004Z" fill="#121416"/>
</svg>
