<svg width="16" height="16" viewBox="0 0 16 16" fill="none" xmlns="http://www.w3.org/2000/svg">
<path d="M6.02659 14.36C6.66658 14.5533 7.31325 14.6666 7.99992 14.6666C9.76803 14.6666 11.4637 13.9643 12.714 12.714C13.9642 11.4638 14.6666 9.76809 14.6666 7.99998C14.6666 7.1245 14.4941 6.25759 14.1591 5.44876C13.8241 4.63992 13.333 3.90499 12.714 3.28593C12.0949 2.66688 11.36 2.17581 10.5511 1.84078C9.7423 1.50575 8.8754 1.33331 7.99992 1.33331C7.12444 1.33331 6.25753 1.50575 5.4487 1.84078C4.63986 2.17581 3.90493 2.66688 3.28587 3.28593C2.03563 4.53618 1.33325 6.23187 1.33325 7.99998C1.33325 10.8333 3.11325 13.2666 5.62658 14.2266C5.56658 13.7066 5.50658 12.8466 5.62658 12.2533L6.39325 8.95998C6.39325 8.95998 6.19992 8.57331 6.19992 7.95998C6.19992 7.03998 6.77325 6.35331 7.42659 6.35331C7.99992 6.35331 8.26658 6.77331 8.26658 7.31331C8.26658 7.88665 7.88658 8.70665 7.69325 9.49331C7.57992 10.1466 8.03992 10.72 8.70658 10.72C9.89325 10.72 10.8133 9.45331 10.8133 7.66665C10.8133 6.06665 9.66658 4.97331 8.01992 4.97331C6.13992 4.97331 5.03325 6.37331 5.03325 7.84665C5.03325 8.41998 5.21992 8.99998 5.52659 9.37998C5.58659 9.41998 5.58659 9.47331 5.56659 9.57331L5.37325 10.3C5.37325 10.4133 5.29992 10.4533 5.18659 10.3733C4.33325 9.99998 3.83992 8.78665 3.83992 7.80665C3.83992 5.69998 5.33325 3.78665 8.21325 3.78665C10.5066 3.78665 12.2933 5.43331 12.2933 7.61998C12.2933 9.91331 10.8733 11.7533 8.83992 11.7533C8.19325 11.7533 7.55992 11.4066 7.33325 11L6.88658 12.58C6.73325 13.1533 6.31325 13.92 6.02659 14.38V14.36Z" fill="white"/>
</svg>
