<svg width="16" height="16" viewBox="0 0 16 16" fill="none" xmlns="http://www.w3.org/2000/svg">
<path d="M14.9733 4.00002C14.4599 4.23335 13.9066 4.38669 13.3333 4.46002C13.9199 4.10669 14.3733 3.54669 14.5866 2.87335C14.0333 3.20669 13.4199 3.44002 12.7733 3.57335C12.2466 3.00002 11.5066 2.66669 10.6666 2.66669C9.09995 2.66669 7.81994 3.94669 7.81994 5.52669C7.81994 5.75335 7.84661 5.97335 7.89328 6.18002C5.51995 6.06002 3.40661 4.92002 1.99994 3.19335C1.75328 3.61335 1.61328 4.10669 1.61328 4.62669C1.61328 5.62002 2.11328 6.50002 2.88661 7.00002C2.41328 7.00002 1.97328 6.86669 1.58661 6.66669V6.68669C1.58661 8.07335 2.57328 9.23335 3.87994 9.49335C3.46043 9.60816 3.02001 9.62413 2.59328 9.54002C2.77435 10.1083 3.12897 10.6056 3.60729 10.962C4.08561 11.3183 4.66358 11.5158 5.25994 11.5267C4.24903 12.327 2.99594 12.7596 1.70661 12.7534C1.47994 12.7534 1.25328 12.74 1.02661 12.7134C2.29328 13.5267 3.79994 14 5.41328 14C10.6666 14 13.5533 9.64002 13.5533 5.86002C13.5533 5.73335 13.5533 5.61335 13.5466 5.48669C14.1066 5.08669 14.5866 4.58002 14.9733 4.00002Z" fill="white"/>
</svg>
